Coordinates
version=1
nRows=14
nColumns=36
inDegrees=yes

Units are S.I. units (second, meters, Newtons, ...)
If the header above contains a line with 'inDegrees', this indicates whether rotational values are in degrees (yes) or radians (no).

endheader
time	pelvis_tilt	pelvis_list	pelvis_rotation	pelvis_tx	pelvis_ty	pelvis_tz	hip_flexion_r	hip_adduction_r	hip_rotation_r	knee_angle_r	knee_angle_r_beta	ankle_angle_r	subtalar_angle_r	mtp_angle_r	hip_flexion_l	hip_adduction_l	hip_rotation_l	knee_angle_l	knee_angle_l_beta	ankle_angle_l	subtalar_angle_l	mtp_angle_l	lumbar_extension	lumbar_bending	lumbar_rotation	arm_flex_r	arm_add_r	arm_rot_r	elbow_flex_r	pro_sup_r	arm_flex_l	arm_add_l	arm_rot_l	elbow_flex_l	pro_sup_l
     14.93333330	     -1.54468035	     -2.11685545	     -3.40055792	      0.99250128	      0.93014077	      0.74810973	     25.18294113	      0.65237830	      5.57876545	     26.56546609	      0.46365485	      4.57410674	    -12.47400605	     -7.49999987	     -3.58701663	     -1.56053818	      3.45727242	     13.15532543	      0.22960374	     11.87192760	     -7.25327221	     -7.49999987	    -16.79792611	      0.66809945	     -0.15652856	      5.83653075	    -11.75811723	      7.73882651	     22.58606718	     82.09613164	     13.88146634	    -13.58775280	      2.41786814	     26.89364778	     81.47182566
     14.95000000	     -2.04542001	     -1.92312611	     -3.49298343	      0.98985421	      0.92465170	      0.75046564	     26.41733200	      0.20635480	      5.54944962	     21.06936487	      0.36772979	      5.20238248	     -9.60807489	     -7.49999987	     -3.82798382	     -1.52732588	      3.58458115	     13.17196311	      0.22989413	     12.21393687	     -7.64930102	     -7.49999987	    -17.08222736	      0.47426478	     -0.71443127	      5.48643769	    -11.71242417	      6.28444846	     23.55800934	     82.58423475	     15.37866742	    -14.50172224	      3.05373407	     29.12085092	     82.25970808
     14.96666670	     -2.58205067	     -1.71186869	     -3.47685955	      0.99094948	      0.91867930	      0.75224914	     27.62919251	     -0.26246830	      5.32732118	     16.21686419	      0.28303767	      6.52289719	     -6.20128357	     -7.49999987	     -4.12923756	     -1.39777792	      3.96357160	     13.36947314	      0.23334133	     12.75456969	     -8.71611455	     -7.49999987	    -16.91689400	      0.38346984	     -1.41640371	      5.20477043	    -11.64900617	      5.30314087	     23.90199986	     82.36211507	     16.72843309	    -15.32073351	      3.31470747	     31.08544461	     82.27455573
     14.98333330	     -2.93437435	     -1.76028520	     -3.52474072	      0.99487990	      0.91678460	      0.75489469	     28.32442186	     -0.30317145	      5.30187661	     12.01651108	      0.20972768	      8.00545432	     -3.28662267	     -7.49999987	     -5.00612131	     -1.58090659	      3.44250479	     13.44379019	      0.23463840	     14.20880356	     -8.17637291	     -7.49999987	    -16.44980086	      0.68074430	     -2.15685604	      4.61806090	    -11.67869120	      4.18433797	     24.45897843	     82.78418613	     17.41767060	    -16.15287009	      3.53922725	     33.01293219	     82.75349089
     15.00000000	     -3.03110225	     -1.99322455	     -3.48233166	      0.99924677	      0.91939038	      0.75815972	     28.44728665	     -0.06818944	      5.20360055	      8.79970915	      0.15358390	      9.27919340	     -0.67043261	     -7.49999987	     -6.43225690	     -1.88824176	      3.09827147	     13.32149083	      0.23250388	     15.48061508	     -8.00618555	     -7.49999987	    -15.84217730	      1.25899806	     -3.00235821	      4.25763516	    -11.72805558	      3.52607615	     23.95930375	     83.05495884	     17.87863407	    -16.73492967	      3.35921191	     33.84968259	     82.55134116
     15.01666670	     -3.26839376	     -2.10576652	     -3.42116089	      1.00246600	      0.92113995	      0.76120924	     28.69203990	      0.28885305	      5.96550122	      7.06865997	      0.12337139	      9.78409919	     -0.02301124	     -7.49999987	     -7.62158605	     -2.06187781	      2.94189006	     13.33862843	      0.23280298	     16.37919138	     -8.31951567	     -7.49999987	    -14.95691296	      1.57621649	     -3.54828077	      3.51577277	    -11.96417855	      3.44243604	     23.68526991	     83.04149602	     18.42409975	    -17.16647777	      3.24385479	     34.05885883	     82.52499364
     15.03333330	     -2.83101859	     -2.89968023	     -3.21525892	      1.00530496	      0.91918924	      0.76208702	     27.70500072	      1.22054352	      5.41823823	      5.94020511	      0.10367614	      9.35362922	      1.76249405	     -7.49999987	     -9.34363593	     -3.01795595	      2.29234148	     13.82921467	      0.24136533	     17.56102613	     -7.46951742	     -7.49999987	    -14.84571240	      2.85771589	     -4.00099746	      3.31032179	    -12.28313005	      2.97508372	     22.40409358	     83.12495386	     18.64470820	    -17.00798068	      3.10787998	     33.65991780	     82.50291208
     15.05000000	     -2.82679102	     -3.24635591	     -3.12013776	      1.00644486	      0.91676107	      0.76211387	     27.42598831	      1.87912135	      5.36748993	      6.26608265	      0.10936377	      8.39235744	      2.65101673	     -7.49999987	    -10.08144562	     -3.60608858	      1.52038920	     15.12093679	      0.26391013	     18.41353240	     -6.90677055	     -7.49999987	    -14.49325091	      3.54282163	     -4.30049100	      3.23320776	    -12.63559621	      2.49511423	     20.86055653	     83.40101072	     18.97575943	    -16.93790452	      3.00102533	     32.99423909	     82.59368501
     15.06666670	     -2.92573224	     -3.46527807	     -2.99715596	      1.00753782	      0.91618015	      0.76180840	     27.23996376	      2.38271128	      5.36877621	      7.23643311	      0.12629958	      6.80672898	      3.02778219	     -7.49999987	    -10.34032618	     -4.12935626	      0.84653067	     17.09734836	      0.29840502	     18.72162715	     -6.73099828	     -7.49999987	    -14.21578039	      4.17694640	     -4.54955339	      3.34957091	    -13.10453948	      2.10602584	     19.20508811	     84.22691437	     19.23133789	    -16.84380418	      3.25729758	     32.21587606	     82.90667273
     15.08333330	     -3.07649889	     -3.62310585	     -3.02018718	      1.00897197	      0.91567006	      0.76216625	     27.09938009	      2.81984431	      5.40001990	      8.52798842	      0.14884148	      5.24983905	      3.49869396	     -7.49999987	    -10.29424733	     -4.60364883	      0.11779412	     19.52016653	      0.34069118	     18.48849355	     -6.63522877	     -7.49999987	    -13.98143909	      4.76094285	     -4.49390768	      3.54896303	    -13.66248267	      1.78791577	     17.51903276	     84.17560167	     19.39762597	    -16.54844916	      3.25657356	     31.44546810	     82.68381085
     15.10000000	     -3.14574074	     -3.77976071	     -3.22671510	      1.01064132	      0.91383555	      0.76406800	     26.85804232	      3.29342756	      5.73698750	      9.98111165	      0.17420326	      3.81801325	      3.52561573	     -7.49999987	    -10.14171949	     -5.03474854	     -0.53750962	     22.19787031	      0.38742592	     17.56633506	     -6.98222627	     -7.49999987	    -13.85813921	      5.35427902	     -4.26827259	      3.79770117	    -14.32166638	      1.54879221	     16.35247237	     84.43721512	     19.35155816	    -16.17306359	      2.92608266	     30.76817732	     82.85734864
     15.11666670	     -3.02682837	     -4.13067051	     -3.58342335	      1.01434411	      0.91164781	      0.76807406	     26.36638306	      3.99260606	      5.96252736	     11.54824435	      0.20155489	      2.90798433	      3.54713120	     -7.49999987	    -10.07378156	     -5.66086928	     -1.36330078	     25.00914430	      0.43649191	     16.05220157	     -7.24834350	     -7.49999987	    -13.92593758	      6.10679043	     -3.92536530	      3.97983746	    -14.97609488	      1.46111419	     16.02814575	     84.52023251	     18.94510528	    -15.93055124	      2.82135925	     30.55272358	     82.91874003
     15.13333330	     -2.91899106	     -4.71856040	     -3.97404484	      1.02161988	      0.91199953	      0.77357036	     25.76879987	      4.96668371	      6.09692172	     13.18846936	      0.23018221	      2.43708033	      3.17800519	     -7.49999987	     -9.96596323	     -6.57181229	     -2.18338085	     27.93265625	      0.48751682	     13.78634633	     -7.44789825	     -7.49999987	    -13.74123889	      7.01636312	     -3.40006690	      4.02353719	    -15.63033225	      1.36569962	     15.69718211	     84.53492324	     18.28818935	    -15.54932165	      2.58682753	     30.26624804	     82.89644943
     15.15000000	     -2.81484648	     -5.51924127	     -4.39330686	      1.03039630	      0.91466863	      0.77841515	     24.91528657	      6.22351549	      6.56517727	     14.64563832	      0.25561461	      2.10157996	      1.87469501	     -7.49999987	     -9.76862513	     -7.64506553	     -2.76501092	     31.07419789	      0.54234707	     10.28788470	     -8.30959420	     -7.49999987	    -13.22995328	      8.14719326	     -2.61495253	      4.10355418	    -16.18778977	      1.24649562	     14.50750758	     84.79728459	     17.54876865	    -14.67131439	      1.27083445	     29.27258704	     82.90602244
